<svg id="b1b88afc-e6cc-4f9e-982c-80aef8ceb42a" data-name="Layer 1" xmlns="http://www.w3.org/2000/svg" width="40" height="40" viewBox="0 0 40 40">
  <path d="M20.00781,40h-.06738A14.43026,14.43026,0,0,1,9.3291,35.439C-.5166,25.33105-.01758,1.96338.00781.97363A1.00035,1.00035,0,0,1,1.90234.55273h0C1.90723.55273,4.3418,4,20.00781,4,35.6875,4,38.0625.54736,38.085.51221a.96714.96714,0,0,1,1.09668-.51416A1.01582,1.01582,0,0,1,39.957.97217c.02735.98877.55567,24.33349-9.28613,34.45117A14.46628,14.46628,0,0,1,20.02441,40ZM2.01465,3.10352c.11621,5.9497,1.126,23.11816,8.749,30.94189a12.74665,12.74665,0,0,0,18.47266-.01514c7.61621-7.82812,8.60742-24.9707,8.71582-30.92089C35.64453,4.419,30.65234,6,20.00781,6,9.33594,6,4.3291,4.4126,2.01465,3.10352Z" style="fill: #f6e251"/>
  <path d="M17.00879,17a.9993.9993,0,0,1-.78223-.37549A4.08957,4.08957,0,0,0,13.165,14.77783h-.00879a5.14863,5.14863,0,0,0-3.36914,1.84961,1.00035,1.00035,0,0,1-1.56055-1.252c.085-.10645,2.11035-2.59766,4.92969-2.59766a5.94942,5.94942,0,0,1,4.63281,2.59766A1,1,0,0,1,17.00879,17Z" style="fill: #4931b1"/>
  <path d="M31.00879,17a.9993.9993,0,0,1-.78223-.37549A4.08957,4.08957,0,0,0,27.165,14.77783h-.00879a5.14863,5.14863,0,0,0-3.36914,1.84961,1.00035,1.00035,0,0,1-1.56055-1.252c.085-.10645,2.11035-2.59766,4.92969-2.59766a5.94942,5.94942,0,0,1,4.63281,2.59766A1,1,0,0,1,31.00879,17Z" style="fill: #4931b1"/>
  <path d="M20.00781,32c-8.89746,0-9-6.93018-9-7a1,1,0,0,1,2-.00537c.00684.51807.2666,5.00537,7,5.00537,6.9209,0,7-4.7959,7-5a1,1,0,0,1,2,0C29.00781,25.06982,28.90527,32,20.00781,32Zm-7-7h0Z" style="fill: #7ae076"/>
</svg>
