<svg xmlns="http://www.w3.org/2000/svg" xmlns:xlink="http://www.w3.org/1999/xlink" width="40.01" height="40.008" viewBox="0 0 40.01 40.008"><defs><path id="a" d="M0 0h40.01v40.008h-40.01z"/></defs><clipPath id="b"><use xlink:href="#a" overflow="visible"/></clipPath><path clip-path="url(#b)" fill="#4931B1" d="M24.787 39.39c-.445 0-.85-.299-.967-.749-.14-.534.181-1.08.716-1.22 7.933-2.063 13.474-9.221 13.474-17.406 0-1.523-.196-3.052-.585-4.544l.956-.298.971-.242-.971.242.975-.227c.436 1.678.654 3.376.654 5.069 0 9.097-6.156 17.05-14.971 19.343l-.252.032m-23.171-13.605c-.445 0-.85-.299-.967-.749-.431-1.656-.649-3.354-.649-5.047 0-9.097 6.156-17.051 14.971-19.343 3.395-.883 6.964-.859 10.322.063.532.147.846.697.699 1.23-.147.533-.696.846-1.23.699-3.021-.831-6.229-.852-9.288-.057-7.933 2.063-13.474 9.222-13.474 17.408 0 1.524.197 3.052.584 4.544.139.534-.181 1.08-.716 1.219l-.252.033"/><path clip-path="url(#b)" fill="#00E0C5" d="M23.307 33.577c-.443 0-.85-.298-.967-.747-.141-.535.18-1.081.714-1.221 2.657-.696 5.017-2.305 6.641-4.528 1.512-2.07 2.312-4.516 2.312-7.069 0-3.822-1.84-7.448-4.922-9.699-.445-.326-.567-.969-.243-1.415.325-.446.928-.562 1.373-.237l.064.047c3.581 2.616 5.728 6.846 5.728 11.304 0 2.982-.933 5.834-2.696 8.249-1.896 2.594-4.647 4.47-7.749 5.283l-.255.033m-11.547-2.262l.6-.8-.602.799c-3.607-2.635-5.754-6.864-5.754-11.323 0-2.982.932-5.834 2.696-8.248 1.888-2.585 4.629-4.458 7.718-5.275.535-.141 1.08.177 1.222.711.141.534-.177 1.081-.711 1.222-2.647.7-4.996 2.306-6.614 4.521-1.512 2.07-2.311 4.514-2.311 7.069 0 3.822 1.84 7.449 4.922 9.699l-1.166 1.625z"/><path clip-path="url(#b)" fill="#7AE076" d="M14.948 29.631c-.171 0-.346-.045-.505-.138-3.354-1.969-5.438-5.606-5.438-9.492 0-3.334 1.487-6.451 4.081-8.552.428-.349 1.059-.283 1.406.148.348.429.282 1.059-.147 1.406-2.123 1.719-3.34 4.27-3.34 6.998 0 3.179 1.706 6.156 4.451 7.768.476.279.635.893.356 1.368-.186.319-.52.494-.864.494m14.538-5.443c-.104 0-.213-.018-.317-.054-.524-.176-.806-.742-.63-1.266.309-.921.466-1.886.466-2.867 0-5.072-4.255-9.166-9.328-8.994-.552.031-1.016-.412-1.036-.964-.02-.551.411-1.015.964-1.035l.4-.007c6.064 0 11 4.935 11 11 0 1.198-.192 2.377-.57 3.504-.14.418-.53.683-.949.683"/><path clip-path="url(#b)" fill="#F6E251" d="M20.04 28.001c-.55 0-.998-.444-1-.995-.003-.552.443-1.002.995-1.005 3.309-.016 5.986-2.721 5.971-6.03-.017-3.308-2.771-5.991-6.029-5.97-3.309.017-5.987 2.722-5.971 6.03.003.552-.443 1.002-.995 1.005h-.005c-.55 0-.997-.445-1-.995-.021-4.411 3.55-8.018 7.961-8.04h.04c4.393 0 7.978 3.562 7.999 7.96.011 2.137-.812 4.15-2.315 5.669-1.503 1.519-3.508 2.36-5.645 2.371h-.006zM20.005 34.002c-.552 0-1-.448-1-1v-6.001c0-.553.448-1 1-1s1 .447 1 1v6.001c0 .552-.448 1-1 1M20.006 40.008c-.26 0-.521-.11-.71-.29-.18-.19-.29-.45-.29-.71 0-.27.11-.52.29-.71.38-.37 1.05-.37 1.42 0 .18.18.29.44.29.71 0 .26-.11.52-.29.71-.191.18-.45.29-.71.29"/><path clip-path="url(#b)" fill="#4931B1" d="M39.401 15.248c0-.553-.449-1.002-1.002-1.002s-1.002.449-1.002 1.002c0 .553.449 1.002 1.002 1.002s1.002-.449 1.002-1.002"/><path clip-path="url(#b)" fill="#00E0C5" d="M13.362 30.522c0-.553-.449-1.002-1.002-1.002-.553 0-1.002.449-1.002 1.002s.449 1.002 1.002 1.002c.553 0 1.002-.449 1.002-1.002"/><path clip-path="url(#b)" fill="#009BFF" d="M28.955 33.866c0-.553-.448-1.002-1.002-1.002-.553 0-1.002.449-1.002 1.002s.449 1.002 1.002 1.002c.554 0 1.002-.45 1.002-1.002M34.394 10.944c-.294-.466-.91-.607-1.38-.312-.467.294-.607.912-.313 1.379 1.508 2.391 2.305 5.149 2.304 7.978l-.015.682c-.233 5.214-3.186 9.84-7.56 12.349l1.019 1.72c4.942-2.848 8.276-8.081 8.539-13.98.012-.258.018-.514.018-.77.001-3.208-.903-6.336-2.612-9.046M21.96 4.091c.033-.551-.387-1.025-.938-1.059l-.258-.013c-9.464-.45-17.325 6.86-17.742 16.225-.012.258-.018.514-.018.771 0 3.196.898 6.314 2.596 9.018.19.301.515.467.848.467.181 0 .366-.05.531-.153.468-.294.608-.911.315-1.379-1.498-2.385-2.289-5.135-2.289-7.954l.015-.682c.359-8.035 6.936-14.33 14.972-14.33l.685.015.225.012c.551.03 1.025-.386 1.058-.938"/></svg>